<?xml version="1.0" encoding="utf-8"?>
<!-- Generator: Adobe Illustrator 19.2.0, SVG Export Plug-In . SVG Version: 6.00 Build 0)  -->
<svg version="1.1" id="Laag_1" xmlns="http://www.w3.org/2000/svg" xmlns:xlink="http://www.w3.org/1999/xlink" x="0px" y="0px"
	 viewBox="0 0 151.5 79.9" style="enable-background:new 0 0 151.5 79.9;" xml:space="preserve">
<style type="text/css">
	.st0{clip-path:url(#SVGID_2_);fill:none;stroke:#743241;stroke-width:2;}
	.st1{fill:#242C29;}
	.st2{clip-path:url(#SVGID_4_);fill:#242C29;}
	.st3{clip-path:url(#SVGID_6_);fill:#242C29;}
	.st4{clip-path:url(#SVGID_8_);fill:#743342;}
</style>
<g>
	<g>
		<defs>
			<rect id="SVGID_1_" x="4.8" y="3.9" width="143" height="71.4"/>
		</defs>
		<clipPath id="SVGID_2_">
			<use xlink:href="#SVGID_1_"  style="overflow:visible;"/>
		</clipPath>
		<polyline class="st0" points="4.8,63.4 95.2,63.4 94.9,4.9 147.8,4.9 		"/>
	</g>
</g>
<path class="st1" d="M130.8,10.7l11.6,16.9h0.1V10.7h1.9v20h-2.1l-11.6-16.9h-0.1v16.9h-1.9v-20H130.8z M118.1,10.7v1.6h-11.9v7.2
	h11.1v1.6h-11.1V29h12v1.6h-13.9v-20h13.8V10.7z"/>
<g>
	<g>
		<defs>
			<rect id="SVGID_3_" x="4.8" y="3.9" width="143" height="71.4"/>
		</defs>
		<clipPath id="SVGID_4_">
			<use xlink:href="#SVGID_3_"  style="overflow:visible;"/>
		</clipPath>
		<path class="st2" d="M118.8,39.6c-0.4-0.6-0.8-1.1-1.4-1.5c-0.5-0.4-1.1-0.7-1.8-0.9c-0.6-0.2-1.3-0.3-2-0.3
			c-1.3,0-2.4,0.2-3.4,0.7c-0.9,0.5-1.7,1.1-2.3,2c-0.6,0.8-1,1.7-1.3,2.8c-0.3,1-0.4,2.1-0.4,3.2s0.1,2.1,0.4,3.1s0.7,2,1.3,2.8
			c0.6,0.8,1.4,1.5,2.3,2s2.1,0.7,3.4,0.7c0.9,0,1.7-0.2,2.5-0.5c0.7-0.3,1.4-0.8,1.9-1.3c0.5-0.6,1-1.2,1.3-2s0.5-1.6,0.6-2.5h1.9
			c-0.1,1.2-0.4,2.3-0.9,3.3c-0.4,1-1,1.8-1.7,2.5s-1.5,1.2-2.5,1.6c-0.9,0.4-2,0.5-3.1,0.5c-1.5,0-2.9-0.3-4.1-0.8
			c-1.2-0.6-2.1-1.3-2.9-2.2c-0.8-0.9-1.3-2-1.7-3.2c-0.4-1.2-0.6-2.5-0.6-3.9s0.2-2.6,0.6-3.9c0.4-1.2,1-2.3,1.7-3.3
			c0.8-0.9,1.7-1.7,2.9-2.3c1.2-0.6,2.5-0.8,4.1-0.8c0.9,0,1.8,0.1,2.7,0.4c0.9,0.3,1.7,0.7,2.4,1.2c0.7,0.5,1.3,1.2,1.8,2
			s0.8,1.7,0.9,2.7h-1.9C119.4,40.9,119.1,40.2,118.8,39.6"/>
	</g>
</g>
<polygon class="st1" points="130.6,35.3 130.6,44.1 142.7,44.1 142.7,35.3 144.7,35.3 144.7,55.7 142.7,55.7 142.7,45.8 130.6,45.8 
	130.6,55.7 128.7,55.7 128.7,35.3 "/>
<polygon class="st1" points="10.8,55 13.5,55 13.5,39.1 22.8,30.6 43.2,55 46.7,55 24.9,28.7 45.4,10 41.8,10 13.5,35.9 13.5,10 
	10.8,10 "/>
<g>
	<g>
		<defs>
			<rect id="SVGID_5_" x="4.8" y="3.9" width="143" height="71.4"/>
		</defs>
		<clipPath id="SVGID_6_">
			<use xlink:href="#SVGID_5_"  style="overflow:visible;"/>
		</clipPath>
		<path class="st3" d="M47.8,25.1c0.8-2.5,2.1-4.6,3.7-6.4c1.6-1.8,3.5-3.3,5.9-4.4c2.3-1.1,4.9-1.6,7.9-1.6c2.9,0,5.6,0.5,7.8,1.6
			c2.3,1.1,4.2,2.5,5.8,4.4c1.6,1.8,2.8,4,3.7,6.4c0.8,2.5,1.3,5.1,1.3,7.8c0,2.8-0.4,5.4-1.3,7.8c-0.8,2.5-2.1,4.6-3.7,6.4
			s-3.5,3.3-5.8,4.4s-4.9,1.6-7.8,1.6s-5.6-0.5-7.9-1.6s-4.3-2.5-5.9-4.4c-1.6-1.8-2.8-4-3.7-6.4c-0.8-2.5-1.3-5.1-1.3-7.8
			C46.5,30.1,46.9,27.5,47.8,25.1 M85.1,24.1c-1-2.8-2.4-5.1-4.2-7.2c-1.8-2-4.1-3.6-6.7-4.8s-5.6-1.7-9-1.7s-6.4,0.6-9,1.7
			c-2.7,1.2-4.9,2.8-6.7,4.8c-1.8,2-3.2,4.4-4.2,7.2s-1.4,5.7-1.4,8.8s0.5,6.1,1.4,8.8c1,2.8,2.4,5.1,4.2,7.2c1.8,2,4.1,3.6,6.7,4.8
			c2.7,1.2,5.7,1.7,9,1.7c3.4,0,6.4-0.6,9-1.7c2.6-1.2,4.9-2.8,6.7-4.8c1.8-2,3.2-4.4,4.2-7.2c1-2.8,1.4-5.7,1.4-8.8
			C86.5,29.8,86,26.8,85.1,24.1"/>
	</g>
	<g>
		<defs>
			<rect id="SVGID_7_" x="4.8" y="3.9" width="143" height="71.4"/>
		</defs>
		<clipPath id="SVGID_8_">
			<use xlink:href="#SVGID_7_"  style="overflow:visible;"/>
		</clipPath>
		<path class="st4" d="M141,74.4c0.2,0.3,0.5,0.5,0.8,0.7c0.3,0.1,0.7,0.2,1,0.2c0.2,0,0.5,0,0.7-0.1s0.4-0.2,0.6-0.3
			c0.2-0.1,0.3-0.3,0.4-0.5s0.1-0.4,0.1-0.7c0-0.4-0.1-0.6-0.2-0.8c-0.1-0.2-0.3-0.4-0.5-0.5s-0.5-0.2-0.7-0.3
			c-0.3-0.1-0.5-0.1-0.7-0.2s-0.4-0.2-0.5-0.4c-0.1-0.2-0.2-0.4-0.2-0.7c0-0.2,0-0.3,0.1-0.5c0.1-0.1,0.2-0.2,0.3-0.3
			c0.1-0.1,0.2-0.2,0.4-0.2c0.2,0,0.3-0.1,0.5-0.1s0.5,0,0.6,0.1s0.3,0.2,0.5,0.4l0.5-0.3c-0.2-0.3-0.4-0.4-0.7-0.5
			s-0.6-0.2-0.9-0.2c-0.2,0-0.5,0-0.7,0.1s-0.4,0.2-0.6,0.3s-0.3,0.3-0.4,0.5s-0.1,0.4-0.1,0.7c0,0.3,0,0.5,0.1,0.7s0.2,0.3,0.3,0.5
			c0.1,0.1,0.3,0.2,0.5,0.3c0.2,0.1,0.4,0.1,0.5,0.2s0.4,0.1,0.5,0.2s0.3,0.1,0.5,0.2c0.1,0.1,0.2,0.2,0.3,0.3
			c0.1,0.1,0.1,0.3,0.1,0.5s0,0.3-0.1,0.5c-0.1,0.1-0.2,0.3-0.3,0.3c-0.1,0.1-0.2,0.2-0.4,0.2c-0.2,0.1-0.3,0.1-0.5,0.1
			c-0.3,0-0.5-0.1-0.8-0.2s-0.4-0.3-0.5-0.5L141,74.4z M132.9,75.2h3.6v-0.5h-3.1v-2.2h2.8V72h-2.8v-2h2.9v-0.5h-3.5v5.7H132.9z
			 M127.1,75.2h0.5v-5.7h-0.5V75.2z M119.9,75.2h0.5l2.2-5.7H122l-1.8,5l-1.8-5h-0.6L119.9,75.2z M109.3,70h1.1c0.4,0,0.7,0,1,0.1
			s0.6,0.2,0.8,0.4c0.2,0.2,0.4,0.4,0.6,0.7c0.1,0.3,0.2,0.6,0.2,1.1s-0.1,0.8-0.2,1.1c-0.1,0.3-0.3,0.5-0.6,0.7
			c-0.2,0.2-0.5,0.3-0.8,0.4s-0.7,0.1-1,0.1h-1.1V70z M108.8,75.2h1.8c0.5,0,0.9-0.1,1.2-0.2c0.3-0.1,0.6-0.3,0.9-0.5
			c0.2-0.2,0.4-0.4,0.5-0.6s0.2-0.4,0.3-0.7c0.1-0.2,0.1-0.4,0.1-0.6s0-0.3,0-0.4s0-0.2,0-0.4c0-0.2-0.1-0.4-0.1-0.6
			c-0.1-0.2-0.2-0.4-0.3-0.7c-0.1-0.2-0.3-0.4-0.5-0.6s-0.5-0.3-0.9-0.5c-0.3-0.1-0.8-0.2-1.2-0.2h-1.8V75.2z M102.9,73.2h-2.6
			l1.3-3.1L102.9,73.2z M98.9,75.2h0.6l0.6-1.5h3l0.6,1.5h0.6l-2.4-5.7h-0.5L98.9,75.2z M89.4,75.2H90l1.4-5l0,0l1.4,5h0.6l1.6-5.7
			h-0.5l-1.4,5l0,0l-1.4-5H91l-1.4,5l0,0l-1.4-5h-0.5L89.4,75.2z M83.2,69.5h-0.5v3.4c0,0.2,0,0.4-0.1,0.6c0,0.2-0.1,0.4-0.2,0.6
			s-0.3,0.4-0.5,0.5s-0.5,0.2-0.8,0.2s-0.6-0.1-0.8-0.2c-0.2-0.1-0.4-0.3-0.5-0.5s-0.2-0.4-0.2-0.6s-0.1-0.4-0.1-0.6v-3.4H79V73
			c0,0.3,0,0.6,0.1,0.9s0.2,0.5,0.3,0.7c0.2,0.2,0.4,0.4,0.6,0.5c0.3,0.1,0.6,0.2,1,0.2s0.7-0.1,1-0.2s0.5-0.3,0.6-0.5
			c0.2-0.2,0.3-0.5,0.3-0.7C83,73.6,83,73.3,83,73v-3.5H83.2z M69.1,71.3c0.1-0.3,0.3-0.6,0.5-0.8c0.2-0.2,0.5-0.4,0.8-0.5
			s0.6-0.2,1-0.2s0.7,0.1,1,0.2s0.5,0.3,0.8,0.5c0.2,0.2,0.4,0.5,0.5,0.8s0.2,0.6,0.2,1s-0.1,0.7-0.2,1s-0.3,0.6-0.5,0.8
			c-0.2,0.2-0.5,0.4-0.8,0.5s-0.6,0.2-1,0.2s-0.7-0.1-1-0.2s-0.5-0.3-0.8-0.5s-0.4-0.5-0.5-0.8s-0.2-0.6-0.2-1
			C69,72,69,71.6,69.1,71.3 M68.6,73.5c0.1,0.4,0.3,0.7,0.6,0.9c0.3,0.3,0.6,0.5,0.9,0.6c0.4,0.1,0.8,0.2,1.2,0.2s0.8-0.1,1.2-0.2
			s0.7-0.4,0.9-0.6c0.3-0.3,0.5-0.6,0.6-0.9c0.1-0.4,0.2-0.8,0.2-1.2c0-0.4-0.1-0.8-0.2-1.2c-0.1-0.4-0.3-0.7-0.6-0.9
			c-0.3-0.3-0.6-0.5-0.9-0.6c-0.4-0.1-0.8-0.2-1.2-0.2s-0.8,0.1-1.2,0.2c-0.4,0.1-0.7,0.4-0.9,0.6c-0.3,0.3-0.5,0.6-0.6,0.9
			s-0.2,0.8-0.2,1.2C68.4,72.8,68.5,73.2,68.6,73.5 M60.5,72.4h1.3c0.2,0,0.3,0,0.5,0.1c0.2,0,0.3,0.1,0.4,0.2s0.2,0.2,0.3,0.4
			c0.1,0.1,0.1,0.3,0.1,0.5c0,0.1,0,0.2-0.1,0.3c0,0.1-0.1,0.2-0.2,0.4c-0.1,0.1-0.2,0.2-0.4,0.3c-0.2,0.1-0.4,0.1-0.7,0.1h-1.2
			L60.5,72.4L60.5,72.4z M60.5,70h1.2c0.2,0,0.3,0,0.5,0c0.1,0,0.3,0.1,0.4,0.2s0.2,0.2,0.3,0.3C63,70.6,63,70.8,63,71
			c0,0.1,0,0.2,0,0.3c0,0.1-0.1,0.2-0.2,0.3c-0.1,0.1-0.2,0.2-0.4,0.2c-0.2,0.1-0.4,0.1-0.7,0.1h-1.1L60.5,70L60.5,70z M60,75.2h1.8
			c0.2,0,0.4,0,0.6-0.1c0.2,0,0.4-0.1,0.6-0.2s0.3-0.3,0.5-0.5c0.1-0.2,0.2-0.5,0.2-0.8c0-0.2,0-0.4-0.1-0.5
			c-0.1-0.2-0.1-0.3-0.3-0.4c-0.1-0.1-0.2-0.2-0.4-0.3c-0.2-0.1-0.3-0.1-0.5-0.1l0,0c0.3-0.1,0.6-0.2,0.8-0.4
			c0.2-0.2,0.3-0.5,0.3-0.8s-0.1-0.6-0.2-0.8c-0.1-0.2-0.3-0.3-0.4-0.5c-0.2-0.1-0.4-0.2-0.6-0.2s-0.4-0.1-0.6-0.1h-1.6L60,75.2
			L60,75.2z M49.1,75.2h0.5v-5l0,0l2.2,5H52l2.2-5l0,0v5h0.5v-5.7h-0.8l-2.1,4.8l-2.1-4.8h-0.8v5.7H49.1z M43.9,69.5h-0.5v3.4
			c0,0.2,0,0.4-0.1,0.6c0,0.2-0.1,0.4-0.2,0.6s-0.3,0.4-0.5,0.5s-0.5,0.2-0.8,0.2s-0.6-0.1-0.8-0.2c-0.2-0.1-0.4-0.3-0.5-0.5
			s-0.2-0.4-0.2-0.6s-0.1-0.4-0.1-0.6v-3.4h-0.4V73c0,0.3,0,0.6,0.1,0.9s0.2,0.5,0.3,0.7c0.2,0.2,0.4,0.4,0.6,0.5
			c0.3,0.1,0.6,0.2,1,0.2s0.7-0.1,1-0.2s0.5-0.3,0.6-0.5c0.2-0.2,0.3-0.5,0.3-0.7c0.1-0.3,0.1-0.6,0.1-0.9v-3.5H43.9z M34,75.2h0.5
			v-5.7H34V75.2z M24.8,70h1.1c0.4,0,0.7,0,1,0.1s0.6,0.2,0.8,0.4c0.2,0.2,0.4,0.4,0.6,0.7c0.1,0.3,0.2,0.6,0.2,1.1
			s-0.1,0.8-0.2,1.1c-0.1,0.3-0.3,0.5-0.6,0.7c-0.2,0.2-0.5,0.3-0.8,0.4s-0.7,0.1-1,0.1h-1.1V70z M24.3,75.2h1.8
			c0.5,0,0.9-0.1,1.2-0.2s0.6-0.3,0.9-0.5s0.4-0.4,0.5-0.6s0.2-0.4,0.3-0.7s0.1-0.4,0.1-0.6s0-0.3,0-0.4s0-0.2,0-0.4
			S29,71.4,29,71.2s-0.2-0.4-0.3-0.7c-0.1-0.2-0.3-0.4-0.5-0.6s-0.5-0.3-0.9-0.5s-0.8-0.2-1.2-0.2h-1.8V75.2z M14.3,71.3
			c0.1-0.3,0.3-0.6,0.5-0.8c0.2-0.2,0.5-0.4,0.8-0.5s0.6-0.2,1-0.2s0.7,0.1,1,0.2s0.5,0.3,0.8,0.5c0.2,0.2,0.4,0.5,0.5,0.8
			s0.2,0.6,0.2,1s-0.1,0.7-0.2,1s-0.3,0.6-0.5,0.8s-0.5,0.4-0.8,0.5s-0.6,0.2-1,0.2s-0.7-0.1-1-0.2s-0.5-0.3-0.8-0.5
			s-0.4-0.5-0.5-0.8s-0.2-0.6-0.2-1C14.1,72,14.1,71.6,14.3,71.3 M13.8,73.5c0.1,0.4,0.3,0.7,0.6,0.9c0.3,0.3,0.6,0.5,0.9,0.6
			s0.8,0.2,1.2,0.2c0.4,0,0.8-0.1,1.2-0.2c0.4-0.1,0.7-0.4,0.9-0.6c0.3-0.3,0.5-0.6,0.6-0.9c0.1-0.4,0.2-0.8,0.2-1.2
			c0-0.4-0.1-0.8-0.2-1.2c-0.1-0.4-0.3-0.7-0.6-0.9c-0.3-0.3-0.6-0.5-0.9-0.6c-0.4-0.1-0.8-0.2-1.2-0.2c-0.4,0-0.8,0.1-1.2,0.2
			c-0.4,0.1-0.7,0.4-0.9,0.6c-0.3,0.3-0.5,0.6-0.6,0.9c-0.1,0.4-0.2,0.8-0.2,1.2C13.6,72.8,13.6,73.2,13.8,73.5 M6.1,70h1.2
			c0.1,0,0.3,0,0.4,0.1c0.1,0,0.3,0.1,0.4,0.2s0.2,0.2,0.3,0.3c0.1,0.1,0.1,0.3,0.1,0.5s0,0.3-0.1,0.5s-0.2,0.2-0.3,0.3
			C8,72,7.9,72,7.7,72.1c-0.1,0-0.3,0.1-0.4,0.1H6.1V70z M5.6,75.2h0.5v-2.7h1.2c0.2,0,0.4,0,0.6-0.1s0.4-0.1,0.5-0.3
			c0.2-0.1,0.3-0.3,0.4-0.5s0.1-0.4,0.1-0.7c0-0.3-0.1-0.5-0.2-0.7s-0.3-0.3-0.4-0.5c-0.2-0.1-0.4-0.2-0.6-0.2s-0.4-0.1-0.6-0.1H5.5
			v5.8H5.6z"/>
	</g>
</g>
</svg>
